# This file uses centimeters as units for non-parametric coordinates.

mtllib BoxFoam(SinglePiece).mtl
g default
v -0.655177 0.000000 0.557341
v 0.655177 0.000000 0.557341
v 0.655177 0.000000 -0.557341
v -0.655177 0.000000 -0.557341
v -0.655177 0.700048 0.557341
v 0.655177 0.700048 0.557341
v 0.655177 0.700048 -0.557341
v -0.655177 0.700048 -0.557341
vt 0.499988 0.624512
vt 0.500014 0.767374
vt 0.232604 0.767422
vt 0.232578 0.624560
vt 0.727465 0.624471
vt 0.727491 0.767332
vt 0.994874 0.624423
vt 0.994900 0.767284
vt 0.005126 0.767464
vt 0.005100 0.624602
vt 0.499946 0.397034
vt 0.232537 0.397083
vt 0.500055 0.994851
vt 0.232646 0.994900
vn -0.000000 0.000000 1.000000
vn -0.000000 0.000000 1.000000
vn -0.000000 0.000000 1.000000
vn -0.000000 0.000000 1.000000
vn 1.000000 0.000000 0.000000
vn 1.000000 0.000000 0.000000
vn 1.000000 0.000000 0.000000
vn 1.000000 0.000000 0.000000
vn 0.000000 -0.000000 -1.000000
vn 0.000000 -0.000000 -1.000000
vn 0.000000 -0.000000 -1.000000
vn 0.000000 -0.000000 -1.000000
vn -1.000000 0.000000 0.000000
vn -1.000000 0.000000 0.000000
vn -1.000000 0.000000 0.000000
vn -1.000000 0.000000 0.000000
vn 0.000000 -1.000000 0.000000
vn 0.000000 -1.000000 0.000000
vn 0.000000 -1.000000 0.000000
vn 0.000000 -1.000000 0.000000
vn 0.000000 1.000000 0.000000
vn 0.000000 1.000000 0.000000
vn 0.000000 1.000000 0.000000
vn 0.000000 1.000000 0.000000
s off
g Box001_foam_NoLid_ UpdatedPSR
usemtl Box001_foam_NoLid_SG1
f 2/1/1 6/2/2 5/3/3 1/4/4
f 3/5/5 7/6/6 6/2/7 2/1/8
f 4/7/9 8/8/10 7/6/11 3/5/12
f 1/4/13 5/3/14 8/9/15 4/10/16
f 3/11/17 2/1/18 1/4/19 4/12/20
f 6/2/21 7/13/22 8/14/23 5/3/24
